<svg xmlns="http://www.w3.org/2000/svg" viewBox="0 0 1000 1000" width="1000" height="1000">
  <g fill="none" stroke="#0F172A" stroke-width="2">
    <!-- Engraved Shield Crest -->
    <path d="M 500 150 C 650 150 780 220 780 440 C 780 700 500 850 500 850 C 500 850 220 700 220 440 C 220 220 350 150 500 150 Z" stroke-width="3" />
    <path d="M 500 175 C 630 175 755 240 755 440 C 755 675 500 815 500 815 C 500 815 245 675 245 440 C 245 240 370 175 500 175 Z" stroke-dasharray="6 4" stroke-width="1" />
    
    <!-- Crest Crown / Top Solitaire Accent -->
    <path d="M 460 130 L 475 100 L 500 130 L 525 100 L 540 130 Z" fill="#C9A251" stroke="none" />

    <!-- Monogram Characters -->
    <text x="500" y="470" font-family="Cinzel, Georgia, serif" font-size="140" font-weight="700" letter-spacing="12" fill="#0F172A" text-anchor="middle" dominant-baseline="middle" stroke="none">V M</text>
    <line x1="380" y1="570" x2="620" y2="570" stroke-width="1.5" />
    <text x="500" y="615" font-family="system-ui, sans-serif" font-size="22" font-weight="600" letter-spacing="10" fill="#0F172A" text-anchor="middle" stroke="none">CHATEAU HERALDIC</text>
  </g>
</svg>
